<?xml version="1.0" encoding="UTF-8" standalone="no"?>
<!-- Generator: Adobe Illustrator 22.1.0, SVG Export Plug-In . SVG Version: 6.00 Build 0)  -->

<svg
   xmlns:dc="http://purl.org/dc/elements/1.1/" 
   xmlns:cc="http://creativecommons.org/ns#" 
   xmlns:rdf="http://www.w3.org/1999/02/22-rdf-syntax-ns#" 
   xmlns:svg="http://www.w3.org/2000/svg" 
   xmlns="http://www.w3.org/2000/svg" 
   xmlns:sodipodi="http://sodipodi.sourceforge.net/DTD/sodipodi-0.dtd" 
   xmlns:inkscape="http://www.inkscape.org/namespaces/inkscape" 
   width="34" height="34" id="svg8660" version="1.1" 
   inkscape:version="0.47pre4 r22446"  
   inkscape:export-xdpi="135" inkscape:export-ydpi="135" 
   sodipodi:docname="ico-zoom-in-black.svg">
   <metadata
   id="metadata174"><rdf:RDF><cc:Work
       rdf:about=""><dc:format>image/svg+xml</dc:format><dc:type
         rdf:resource="http://purl.org/dc/dcmitype/StillImage" /><dc:title></dc:title></cc:Work></rdf:RDF></metadata><defs
   id="defs172" /><sodipodi:namedview
   pagecolor="#ffffff"
   bordercolor="#666666"
   borderopacity="1"
   objecttolerance="10"
   gridtolerance="10"
   guidetolerance="10"
   inkscape:pageopacity="0"
   inkscape:pageshadow="2"
   inkscape:window-width="1920"
   inkscape:window-height="1056"
   id="namedview170"
   showgrid="false"
   inkscape:zoom="6.9411765"
   inkscape:cx="17"
   inkscape:cy="17"
   inkscape:window-x="1366"
   inkscape:window-y="24"
   inkscape:window-maximized="1"
   inkscape:current-layer="Layer_1" />
<path
   id="ico-busca"
   d="M13,22c5,0,9-4,9-9s-4-9-9-9s-9,4-9,9S8,22,13,22z M13,26C5.8,26,0,20.2,0,13S5.8,0,13,0s13,5.8,13,13  S20.2,26,13,26z M23.4,23.4c0.8-0.8,2-0.8,2.8,0l7.1,7.1c0.8,0.8,0.8,2,0,2.8s-2,0.8-2.8,0l-7.1-7.1C22.6,25.5,22.6,24.2,23.4,23.4z  " />
<path
   id="Combined-Shape"
   d="M14.4,12h4.8v2.4h-4.8v4.8H12v-4.8H7.2V12H12V7.2h2.4V12z" />
</svg>